<svg height="174" viewBox="0 0 174 174" width="174" xmlns="http://www.w3.org/2000/svg"><g fill="none" fill-rule="evenodd" transform="translate(32.172 15.5)"><path d="m23.1905685 130.797513c1.9739817 6.628745 14.6262262 12.624278 32.6685906 12.624278s30.9081556-6.552629 32.6685906-12.624278c1.7604351-6.071648 13.6834333-67.4644776 13.6834333-78.5985382 0-11.1340605-25.4135607-17.6514082-47.2107738-17.6514082-21.7972132 0-48.44214373 6.5173477-48.44214373 17.6514082 0 6.0943489 14.87641563 72.7021672 16.63230303 78.5985382z" fill="#333"/><path d="m9.60229877 69.3009098c-1.15600055-4.517443-2.47892588-7.8122728-3.96877599-9.8844893-1.48985012-2.0722166-3.28277513-3.1083248-5.37877503-3.1083248v-9.1555672c2.61155922-25.1230383 13.54649175-39.65169542 32.80479745-43.58597124.640849-1.90091128 1.4872358-3.08100236 2.5391602-3.54027324h38.6533885c1.4053831.70057747 2.3136126 1.88066855 2.7246885 3.54027324 17.6903654 4.12694446 28.3208686 18.65560154 31.8915106 43.58597124v9.1555672c-1.971619 0-3.675245 1.0361082-5.110877 3.1083248-1.435632 2.0722165-2.670531 5.3670463-3.704696 9.8844893v-22.1483813h3.704696c-1.619423-20.4661066-10.5463006-33.3536792-26.7806336-38.66271795-.4841135 1.45591539-1.392343 2.50336895-2.7246885 3.14236065h-38.6533885c-1.1429891-.5729197-1.9893758-1.6203732-2.5391602-3.14236065-15.6381643 2.77816875-24.91003055 15.66574135-27.81559878 38.66271795h4.35835235z" fill="#333"/><path d="m54.3847242 39.7045071c20.1693937 0 36.963057 5.3870738 40.5889249 11.6436326-3.6258679 6.2565588-20.4195312 10.9874181-40.5889249 10.9874181-20.1693936 0-36.9630569-4.7308593-40.5889249-10.9874181 3.625868-6.2565588 20.4195313-11.6436326 40.5889249-11.6436326z" fill="#9eac83"/></g></svg>