<svg xmlns="http://www.w3.org/2000/svg" viewBox="0 0 525 525" shape-rendering="geometricPrecision" image-rendering="optimizeQuality">
	<path fill="#d1761f" d="M246.6123 500C238.6033 499.2864 217.5317 495.6357 209.7153 493.64C142.1412 476.3868 84.9147 430.1144 54.6309 368.2414C38.0289 334.3217 31.1099 303.9877 31.1372 265.2414C31.1642 226.448 38.1898 195.5063 54.523 162.2414C66.7563 137.3264 80.8272 117.8086 100.8031 98.0462C138.1693 61.0793 185.5001 38.1952 239.1123 31.1747C256.6398 28.8794 293.7424 29.6263 310.1123 32.6038C344.1563 38.796 374.7216 50.9581 402.1123 69.211C459.0188 107.1329 495.9293 165.1289 505.5519 231.7414C507.6121 246.0029 508.8046 275.6819 507.417 278.1613C506.6602 279.5137 506.2668 278.0968 505.7712 272.2346C503.3145 243.1721 490.743 208.0305 473.3983 181.7414C420.6795 101.8361 322.3202 67.9357 231.2524 98.2836C160.9619 121.7075 108.1337 181.136 93.6344 253.0953C86.465 288.6768 88.6164 323.5539 100.1046 357.9857C120.3646 418.7082 168.8545 467.219 230.3483 488.2857C244.8507 493.2539 263.4752 497.3939 275.7569 498.3794C290.4627 499.5594 286.7565 500.6817 268.6123 500.8929C258.8123 500.4672 248.8123 500.2375 246 500ZM300 475C223.9858 469.4635 161.0043 412.7856 147.8606 338.0878C145.4682 324.4912 145.0072 299.0747 146.9262 286.5662C158.3219 212.2847 215.4606 155.93 290 145.4553C305.1081 143.3322 332.0304 144.0764 346.5 147.0171C359.0864 149.575 373.0391 154.1156 384 159.2207L392.5 163.1796 384.5 166.9576C355.6306 180.5911 337.8123 212.4809 341.995 243.0295C346.1836 273.6212 367.3388 297.6323 397.7085 306.2641C408.642 309.3716 425.3611 309.3707 436.2992 306.2621C450.4421 302.2425 461.5336 295.6685 471.6279 285.3227C475.0357 281.83 478.0434 279.331 478.3117 279.7693C478.58 280.2077 479.3589 285.0231 480.0426 290.4704C481.7294 303.9094 480.7389 329.4779 478.037 342.2434C469.4316 382.8997 447.7485 417.0252 414.5 442.2394C383.0308 466.1043 341.4005 478.0155 300 475.0001Z"/>
</svg>