<svg xmlns="http://www.w3.org/2000/svg" viewBox="0 0 135 135" shape-rendering="geometricPrecision" image-rendering="optimizeQuality">
	<path fill="#171717" fill-rule="evenodd" d="M66.9 3C33.5 3 6.1 14.9 3.1 30.1L38.7 36.8C41.6 35.9 44.9 35.5 48.3 35.5L65 25.5C64.8 23 66.3 20.4 69.7 18.3C74.5 15.2 82 13.5 89.6 13.5C94.8 13.4 100.1 14.2 104.6 15.7C115.8 19.5 118.3 26.8 110.3 32C105.2 35.3 97 37 88.9 36.8L66.9 44.7C66.7 46.3 65.6 47.8 63.5 49.2C57.6 53 46.1 53.9 37.9 51.1C34.3 49.9 31.9 48.1 30.9 46.3L5.5 41.4C7.8 45 11.5 48.3 16.3 51.2C8 56 3 62 3 68.5C3 74.9 7.8 80.8 15.9 85.6C7.8 90.3 3 96.2 3 102.6C3 118.3 31.6 131 67 131C102.3 131 131 118.3 131 102.6C131 96.2 126.2 90.3 118.1 85.6C126.2 80.8 131 74.9 131 68.5C131 62 126 55.9 117.6 51.1C125.9 46 130.9 39.7 130.9 32.9C130.9 16.4 102.2 3 66.9 3ZM89.7 17.2C84.5 17.3 79.5 18.4 76.3 20.5C70.8 24.1 72.5 29 80.1 31.6C87.7 34.2 98.2 33.4 103.7 29.8S107.5 21.3 99.9 18.8C96.8 17.8 93.2 17.3 89.7 17.3ZM90 18.9C97.4 18.9 103.3 21.7 103.3 25.1C103.3 28.5 97.4 31.3 90 31.3S76.7 28.5 76.7 25.1C76.7 21.7 82.6 18.9 90 18.9ZM48.3 37.4C46.7 37.5 45.2 37.6 43.7 37.8L52.8 39.5A10.8 5 0 1144.7 48.8L35.8 47.1C36.8 48 38.2 48.8 40.1 49.5C46.5 51.7 55.5 51 60.1 48S63.3 40.8 56.9 38.7C54.3 37.8 51.2 37.4 48.3 37.4ZM112 54V63.3C112 74.3 91.8 83.2 67 83.2C42.1 83.2 22 74.3 22 63.3V54.1C33.5 59.4 49.4 62.7 66.9 62.7C84.5 62.7 100.5 59.4 112.1 54ZM112 88.6V97.4C112 108.4 91.8 117.3 67 117.3C42.1 117.3 22 108.4 22 97.4V88.6C33.6 93.7 49.4 96.8 67 96.8S100.5 93.7 112 88.6Z"/>
</svg>