<svg xmlns="http://www.w3.org/2000/svg" viewBox="0 0 45 45" shape-rendering="geometricPrecision" image-rendering="optimizeQuality">
	<defs>
		<linearGradient id="grad1" x1="0%" y1="0%" x2="0%" y2="100%">
			<stop offset="0%" style="stop-color:#b12f18;stop-opacity:1" />
			<stop offset="100%" style="stop-color:#8a2413;stop-opacity:1" />
		</linearGradient>
	</defs>
	<path fill="url(#grad1)" d="M25.56 1.85 18.696 1.964 17.3 3.014 17.416 3.128 12.879 3.242 13.228 2.775 2.874 2.542 2.758 3.242 2.642 4.292 3.34 5.575 2.991 8.258 2.409 10.591 2.758 12.807 2.874 14.557 3.572 16.89 3.339 18.056 3.455 19.339 4.269 20.273 4.502 21.79 2.99 22.373 3.223 27.039 4.154 27.739 3.572 31.822 3.107 32.055 2.758 39.871 3.169 39.816 4.158 40.02C4.158 40.02 5.351 40.434 5.598 40.516C5.845 40.597 6.212 40.144 6.212 40.144H7.201L8.023 39.979 8.477 40.187 8.888 40.146 9.917 40.068 10.408 39.86 10.615 40.356 10.779 40.237 11.233 40.029 12.178 39.951 12.382 40.239C12.382 40.239 13.534 40.358 13.945 40.358C14.356 40.358 14.276 40.026 14.276 40.026C14.276 40.026 14.398 39.989 14.603 40.194C14.809 40.4 15.097 40.114 15.097 40.114L15.508 39.906 15.799 40.198 16.086 40.402 16.868 40.239H18.14L18.431 40.158 19.624 41.849 19.704 40.985H21.638C21.803 40.985 21.722 41.561 21.722 41.561L22.994 41.149 23.652 41.808 25.012 40.94 25.75 40.821 27.19 40.743H29.248L31.593 40.906 32.211 40.658 32.662 40.246 33.898 40.946 34.8 40.575C34.8 40.575 35.788 40.949 35.953 40.991C36.118 41.032 37.64 40.823 37.64 40.823L38.585 40.575 37.971 40.123 38.382 39.96 40.109 40.038 42.41 40.617 42.37 25.557V24.609L41.796 24.69 41.054 24.81V24.354L41.465 23.982 41.796 23.49 41.876 21.715 41.752 20.435 41.218 18.868 40.727 18.208 40.643 17.592 40.767 17.179 40.807 17.059 41.341 16.851 41.425 16.643 41.014 15.943 41.385 15.732 41.967 15.382 42.2 13.283 42.316 11.883V6.983L41.967 5.583 42.2 4.067 42.316 3.484 41.269 3.017 37.313 2.318 36.731 3.134 36.498 2.201 28.936 2.087 28.703 3.37 26.842 3.604 26.609 2.787 24.98 2.554 25.562 1.854ZM10.777 8.437 37.847 26.832 35.706 34.501 30.605 34.669 6.995 9.429 10.78 8.438M32.252 8.77 35.215 10.334 34.39 16.108 33.816 16.276 25.919 10.256 32.252 8.772M10.042 25.351 18.102 33.431 13.248 35.163 10.699 35 7.572 32.361 10.041 25.351Z"/>
</svg>