<svg width="1000" height="550" viewBox="0 0 1000 550" fill="none" xmlns="http://www.w3.org/2000/svg" color="none">
<path d="M728 10C814 10 890 64 918 146L980 332C1010 420 944 510 852 510 830 510 810 506 792 496L642 422C614 408 584 400 552 400H450C420 400 392 406 364 418L196 498C178 506 160 510 142 510 52 510-10 422 20 338L88 144C116 64 190 10 276 10H728ZM460 60H276C212 60 156 100 134 160L66 356C56 388 66 420 88 440L460 60ZM530 60 140 460C140 460 140 460 142 460 152 460 164 458 174 452L272 406 620 60H530ZM690 60 394 356C412 352 430 350 450 350H504L770 66C756 62 742 60 728 60L690 60Z" fill="#FFFFFF"></path>
</svg>