<svg xmlns="http://www.w3.org/2000/svg" viewBox="0 0 1250 1250" shape-rendering="geometricPrecision" image-rendering="optimizeQuality">
	<path fill="#171717" d="M631.09 39.45c-333.47 0-603.88 270.36-603.88 603.88c0 266.81 173.03 493.17 412.97 573.02c30.18 5.59 41.26-13.1 41.26-29.05c0-14.4-.56-61.97-.82-112.43c-168 36.53-203.45-71.25-203.45-71.25c-27.47-69.8-67.05-88.36-67.05-88.36c-54.79-37.48 4.13-36.71 4.13-36.71c60.64 4.25 92.57 62.24 92.57 62.24c53.86 92.31 141.27 65.62 175.73 50.19c5.42-39.03 21.07-65.68 38.34-80.75c-134.13-15.27-275.13-67.05-275.13-298.44c0-65.93 23.59-119.8 62.22-162.09c-6.27-15.22-26.94-76.63 5.85-159.81c0 0 50.71-16.23 166.11 61.9c48.17-13.38 99.83-20.09 151.15-20.32c51.32.23 103.02 6.94 151.28 20.32c115.26-78.13 165.9-61.9 165.9-61.9c32.87 83.18 12.19 144.59 5.92 159.81c38.72 42.29 62.15 96.16 62.15 162.09c0 231.94-141.27 283.01-275.74 297.96c21.66 18.74 40.96 55.49 40.96 111.83c0 80.8-.7 145.83-.7 165.72c0 16.07 10.87 34.9 41.48 28.97c239.81-79.94 412.62-306.22 412.62-572.94c0-333.52-270.37-603.88-603.87-603.88Z"/>
</svg>