<svg xmlns="http://www.w3.org/2000/svg" fill="none" viewBox="0 0 32 32"><path fill="#E24329" d="M27.07.92a1.15 1.15 0 0 0-2.18.11L22 10H10L7.11 1.03A1.15 1.15 0 0 0 4.93.92L.58 12.26a8 8 0 0 0 2.65 9.48l11.95 8.99a1.35 1.35 0 0 0 1.62 0l11.95-8.99a8 8 0 0 0 2.65-9.48Z"/><path fill="#FC6D26" d="m16 22.14 6.1 4.61 6.65-5.01a8 8 0 0 0 2.65-9.48 14.75 14.75 0 0 0-5.86 2.64Z"/><path fill="#FCA326" d="m16 22.14-6.12 4.61 5.3 3.98a1.35 1.35 0 0 0 1.62 0l5.3-3.98Z"/><path fill="#FC6D26" d="M16 22.14 6.44 14.9a14.75 14.75 0 0 0-5.86-2.64 8 8 0 0 0 2.65 9.48l6.65 5.01Z"/></svg>
