<svg xmlns="http://www.w3.org/2000/svg" viewBox="0 0 1250 900" shape-rendering="geometricPrecision" image-rendering="optimizeQuality">
	<defs>
		<linearGradient id="grad1" x1="0%" y1="0%" x2="100%" y2="0%">
			<stop offset="0%" style="stop-color:#d64e41;stop-opacity:1" />
			<stop offset="100%" style="stop-color:#dc473a;stop-opacity:1" />
		</linearGradient>
	</defs>
	<path fill="url(#grad1)" d="M1131.1062 10 611.5692 365.4727 92.0322 10C46.9145 10 10 46.9145 10 92.0322C10 120.1283 24.1505 144.943 45.684 159.7088L611.5692 546.9005 1177.4544 159.7088C1198.9878 144.943 1213.1384 120.1283 1213.1384 92.0322C1213.1384 46.9145 1176.2239 10 1131.1062 10ZM1076.4181 92.0322V885.0097H1131.1063C1176.224 885.0097 1213.1384 848.0953 1213.1384 802.9776V92.0322H1076.4181ZM10 92.0322V802.9776C10 848.0954 46.9145 885.0097 92.0322 885.0097H146.7203V92.0322H10Z"/>
</svg>