<svg xmlns="http://www.w3.org/2000/svg" xmlns:xlink="http://www.w3.org/1999/xlink" viewBox="0 0 48 48" shape-rendering="geometricPrecision" image-rendering="optimizeQuality">
	<defs>
		<path id="a" d="M44.5 20H24V28.5H35.8C34.7 33.9 30.1 37 24 37C16.8 37 11 31.2 11 24S16.8 11 24 11C27.1 11 29.9 12.1 32.1 13.9L38.5 7.5C34.6 4.1 29.6 2 24 2C11.8 2 2 11.8 2 24S11.8 46 24 46C35 46 45 38 45 24C45 22.7 44.8 21.3 44.5 20Z"/>
	</defs>
	<clipPath id="b">
		<use xlink:href="#a" overflow="visible"/>
	</clipPath>
	<path clip-path="url(#b)" fill="#FBBC05" d="M0 37V11L17 24Z"/>
	<path clip-path="url(#b)" fill="#EA4335" d="M0 11 13 21 48 9V0H0Z"/>
	<path clip-path="url(#b)" fill="#34A853" d="M0 37 26 17 48 18V48H0Z"/>
	<path clip-path="url(#b)" fill="#4285F4" d="M48 48 16 23 48 11Z"/>
</svg>