<svg xmlns="http://www.w3.org/2000/svg" viewBox="0 0 1000 1000" shape-rendering="geometricPrecision" image-rendering="optimizeQuality">
	<path fill="#333333" d="M 932.7 201.4 L 519.7586 201.4 L 715.5 810.9 L 544.7 999.3 L 932.7 999.3 C 969.2 999.3 999.1 969.9 999.1 933.9 L 999.1 266.8 C 999.1 230.8 969.2 201.4 932.7 201.4 Z"/>
	<path fill="#333d85" d="M 936.5 477.1 V 438 H 748 V 374.8 H 686.8 V 438 L 595.7429 438 L 608.2999 477.1 H 805.9 C 793.1 522.2 764.8 564.8 737.2 597.9 C 688.3 540 688.1 521.2 688.1 521.2 H 637.3 C 637.3 521.2 639.4 549.4 708 629.8 C 685.7 652.6 675.4 661 668.9684 666.01 L 684.6695 714.9 C 697.4 704 708 694.6 737.5 663.3 C 767.1 695.4 805.3 734 854.7 780 L 886.8 747.9 C 833.9 699.9 795.1 661.8 766.6 631.2 C 804.8 586 843.6 529.1 851.8 477 H 936.4 V 477.1 Z"/>
	<path fill="#333d85" d="M 715.5 810.9 L 544.7 999.3 L 483.3 810.9"/>
	<path fill="#2c4e87" d="M 67.4 1 C 30.9 1 1 30.9 1 67.5 C 1 293.1667 1 518.8333 1 744.5 C 1 781 30.9 810.9 67.4 810.9 L 715.5 810.9 L 455.4 1 L 67.4 1 Z"/>
	<path fill="#333333" d="M 372.4 431.6 C 369.9 461.9 344 506.8 281.3 506.8 C 227 506.8 183 461.9 183 406.6 S 227 306.4 281.3 306.4 C 312.2 306.4 332.8 319.8 344.6 330.7 L 385.8 291.1 C 358.7 266.1 323.4 250.5 281.3 250.5 C 195.2 250.5 125.3 320.4 125.3 406.5 S 195.2 562.5 281.3 562.5 C 371.5 562.5 431.1 499.2 431.1 409.9 C 431.1 397.1 429.5 387.7 427.4 378.1 H 281.4 V 431.5 L 372.4 431.6 L 372.4 431.6 Z"/>
</svg>