<svg xmlns="http://www.w3.org/2000/svg" shape-rendering="geometricPrecision" image-rendering="optimizeQuality">
	<path fill="#171717" d="M125 0H172V63H202V0H249V170H203V104H173V170H125ZM467 170A1 1 0 00459 0C416 0 391 30 383 47C381 25 361 0 336 0H257V170H336C361 170 383 148 383 123C391 140 416 170 459 170ZM301 38H325C332 38 337 44 337 52C337 60 332 66 325 66H301ZM301 102H325C332 102 337 108 337 116C337 123 332 130 325 130H301ZM356 85Q366 81 375 72Q373 85 375 98Q367 90 356 85ZM459 40A1 1 0 01459 130A1 1 0 01459 40ZM459 49A1 1 0 00459 121A1 1 0 00459 49Z"/>
	<path fill="#a83cbf" d="M72 172C94 172 113 179 126 193C139 179 159 172 180 172C227 172 253 204 253 241V359C253 361 252 362 250 362H233C224 362 216 355 216 345V241A1 .93 0 00144 241V359C144 361 143 362 141 362H124C115 362 107 354 107 345V241A1 .93 0 0036 241V359C36 361 35 362 33 362H16C8 362 0 354 0 345V241C0 197 33 172 72 172ZM403 176C400 176 401.4 180.9001 399.7 188.6001C385.3 177.6001 367.2 172.0001 347.7 172.0001C300.3 172.0001 261.8 205.0001 261.8 267.3001C261.8 329.6001 300.2 362.6001 347.7 362.6001C367.1 362.6001 385 357.1001 399.4 346.3001C400.2 355.0001 407.5 361.9001 416.5 361.9001H432.7C434.3 361.9001 435.6 360.6001 435.6 359.0001V178.0001C435.5 176.4001 434.3 175.1001 432.7 175.1001ZM348 207A1 1.176 0 01348 327A1 1.176 0 01348 207ZM447 175H474C481 175 489 179 493 185L524 231C529 236 536 236 540 231L571 185C575 179 582 175 590 175H617C619 175 620 177 619 179L565 259C561 264 561 272 565 278L619 358C620 360 619 362 617 362H590C582 362 575 358 571 352L540 306C536 301 528 301 524 306L493 352C489 358 482 362 474 362H447C445 362 444 361 445 359L499 278C503 272 503 265 499 258L445 178C444 176 445 175 447 175Z"/>
</svg>