<svg xmlns="http://www.w3.org/2000/svg" viewBox="0 0 275 350" shape-rendering="geometricPrecision" image-rendering="optimizeQuality">
	<path fill="#1ce783" d="M232.36 133.292C248.916 146.752 257.206 167.764 257.206 196.335V339.813H178.324V206.894C178.324 201.1 176.15 196.025 171.803 191.677C167.454 187.328 162.378 185.156 156.585 185.156H110.622C104.819 185.156 99.85 187.329 95.716 191.677C91.572 196.025 89.504 201.1 89.504 206.894V339.813H10V10H89.503V117.453C90.746 117.045 93.637 116.211 98.2 114.968C102.751 113.727 108.757 113.106 116.212 113.106H167.143C194.055 113.105 215.795 119.84 232.36 133.292Z"/>
</svg>