<svg xmlns="http://www.w3.org/2000/svg" viewBox="0 0 1050 770">
	<path fill="#042b4c" stroke="#0c3c6a" stroke-width="7" d="M767.6 15H766C757 16 575 33 547.4 41.8C535.2 45.6 515.8 56.2 524.2 85C527 94.6 539 115.4 549.8 134C551.4 136.8 552.8 139.2 553.6 140.6C575 178.2 568.2 205 559.8 224.2C543 262.8 506.4 276.6 477.6 276.6C460.6 276.6 443.8 272 430.6 263.8C389.4 238 374.8 202.2 385.8 154.4C391.4 128.6 393.6 110 392.4 97.4C391.4 87.8 386.8 80.4 379.2 75.8C373.4 72.4 366 70.6 356.8 70.6C338.6 70.6 319.2 77.6 317 78.4L175 125.6C170 127.2 166.2 130.4 164 134.6C162.6 137.6 161.2 142.4 163.4 148.8L201.2 262.2C209.8 287.8 207.4 298.8 204 303.6C201.2 307.6 195.4 309.6 187.2 309.6C185.2 309.6 183.2 309.4 180.8 309.2L157.4 306.8 112 302.2C109.2 302 106.4 301.8 103.6 301.8C78.6 301.8 53.8 313.4 35.4 333.6C15 356.4 4.6 388 7.4 420.2C11.6 465.6 35.6 491.4 54.8 505C77.6 521.2 103.4 527.2 118.4 527.4H120.2C141.8 527.4 164.4 521 191.4 507.2C219 493 230.2 490.8 234.4 490.8H235.2C250.6 492.4 250.2 525 250.2 525.2V525.6L252.6 719V719.8C254.2 732.4 263 736.8 270.2 736.8H271.8C280.8 736 462.8 718.8 490.2 710.2C502.4 706.4 521.8 695.8 513.4 667C510.6 657.4 498.6 636.6 487.8 618C486.2 615.2 484.8 612.8 484 611.4C462.6 573.8 469.4 547 477.8 527.8C494.6 489.2 531.2 475.4 560 475.4C577 475.4 593.8 480 607 488.2C648.2 514 662.8 549.8 651.8 597.6C646.2 623.4 644 642 645.2 654.6C646.2 664.2 650.8 671.6 658.4 676.2C664.2 679.6 671.6 681.4 680.8 681.4C699 681.4 718.4 674.4 720.6 673.6L862.6 626.4C867.6 624.8 871.4 621.6 873.6 617.4C875 614.4 876.4 609.6 874.2 603.2L836.4 489.8C827.8 464.2 830.2 453.2 833.6 448.4C836.4 444.4 842.2 442.4 850.4 442.4C852.4 442.4 854.4 442.6 856.8 442.8L880.2 445.2 925.6 449.8C928.4 450 931.2 450.2 934 450.2C959 450.2 983.8 438.6 1002.2 418.4C1023.2 395.4 1033.6 363.6 1030.6 331.4C1026.4 286 1002.4 260.2 983.2 246.6C960.4 230.4 934.6 224.4 919.6 224.2H917.8C896.2 224.2 873.6 230.6 846.6 244.4C819 258.6 807.8 260.8 803.6 260.8H802.8C787.4 259.2 787.8 226.6 787.8 226.4V226L785.2 33V32.2C783.6 19.4 774.8 15 767.6 15Z"/>
	<path fill="#000000" d="M505.6 669.8C502.2 658.4 481.8 624.8 476.8 616C453.8 575.4 461.4 545.2 470.2 524.8C473.4 517.4 477.2 511 481.6 505C465.4 452.6 472.4 395.8 472.4 395.8C475.2 436.8 493.8 467.4 505.4 483C538 462.2 581.4 462.8 611.4 481.6C643.4 501.8 658.4 526.6 662.4 553L739 585.8 784.2 518.8 659.4 330.4C650.2 306.8 653.8 277.6 653.8 277.6C649 276 604.8 252.2 565.8 231C538.8 287.4 468.8 297.6 426 270.8C394.6 251.2 379.8 227 375.2 201.2C360.8 209.4 345.4 220 329.4 232.8C305.2 202.4 274.2 159 247 110.2L178 133.2C172.6 135 169.6 139.4 171.8 145.8C171.8 145.8 173.6 151.4 176.6 160.2C215.2 205.6 257.6 244.6 289.4 270.8C277.6 283.4 266 297.4 255.2 312.8C243.4 306.6 230.2 299.4 216 291.2C216 308.2 207.4 320.2 180.4 317.6C161.2 315.6 118.4 311.2 111.6 310.6C105.6 310 99.8 310.2 94 311C142.8 333 191 349.2 227 359.2C218.8 375 211.4 391.8 205.2 409.6C157.4 406.6 87.2 398.2 20 378.8C16.2 391.4 14.6 405.4 16 419.8C18 442.6 25.4 460.4 35.4 474.4C93.8 475.8 150.2 470.4 190.2 464.4C187.8 476.4 186 488.8 184.6 501.6C185.6 501 186.6 500.6 187.8 500C207 490.2 226.2 482 236.2 482.8C260.2 485.2 258.8 526 258.8 526L261.2 719.4C262.6 730.2 271.2 729 271.2 729S461.2 711.2 488 702.6C512 695.2 507.8 677.4 505.6 669.8ZM726.2 518.8 752.2 525.8 718.6 532 703.4 504.2 726.2 518.8ZM604.4 317.4 622.8 335S601 344 591.6 338C582.2 331.8 567 298.2 567 298.2L604.4 317.4ZM660.2 599.8C659.4 604 658.4 608 657.6 612.2C675 612.4 701.6 606 701.6 606L663.2 557.2C664.8 571.2 663.4 585.6 660.2 599.8ZM374.6 194.2C373.2 180.4 374.6 166.4 377.8 152.4C382.2 132 385.4 111.6 384.2 98C381.4 71.6 346 78.4 329 83.2C343.4 125.8 360.2 164.6 374.6 194.2Z"/>
</svg>

