<svg xmlns="http://www.w3.org/2000/svg" viewBox="0 0 475 850" >
	<path fill="#74040a" d="M13 9 13.539 828.471C13.863 828.795 27.778 827.395 44.606 825.559C61.434 823.726 84.625 821.356 96.168 820.384C113.858 818.875 166.93 815.534 172.972 815.426L175.451 469Z"/>
	<path fill="#97060d" d="M13 9 297.991 814.995C298.099 815.102 308.887 815.751 321.937 816.395C361.418 818.335 410.389 822.541 447.606 827.175C456.127 828.255 463.57 828.795 464.002 828.363L174.587 8.892Z"/>
	<path fill="#74040a" d="M303 8 303 372.49 464 828.3573 463.725 8Z"/>
	<path fill="#67020a" d="M303 372.49 464 828.3573 302.521 278.218Z"/>
	<path fill="#67020a" d="M13 9 174.7845 562 175.451 469Z"/>
</svg>