<svg xmlns="http://www.w3.org/2000/svg" viewBox="0 0 350 400" shape-rendering="geometricPrecision" image-rendering="optimizeQuality">
	<path fill="#c5f3ff" d="M175 96.7721C206 103.0435 257 134.0435 257 200.0435C257 255.0435 213 306.0435 150 306.0435C87 306.0435 43 255.0435 43 200.0435C43 134.0435 94 103.0435 125 96.7721L125 61.0779C68 70.0435 8 122.0435 8 200.0435C8 270.0435 65 341.0435 150 341.0435C235 341.0435 293 270.0435 292 200.0435C292 122.0435 232 70.0435 175 61.0779Z"/>
	<path fill="#00c69d" d="M125 6.0435 125 303.2373C132.5 305.0435 141 306.0435 150 306.0435C159 306.0435 167.5 305.0435 175 303.2373L175 61.0435C232 70.0435 292 122.0435 292 200.0435C293 270.0435 235 341.0435 150 341.0435C139 341.0435 132 340.0435 125 338.9221L125 393.9565 150 393.9565C208 392.0435 342 348.0435 342 202.0435C342 56.0435 208 8.0435 150 6.0435L125 6.0435Z"/>
</svg>