<svg xmlns="http://www.w3.org/2000/svg" viewBox="0 0 400 300" shape-rendering="geometricPrecision" image-rendering="optimizeQuality">
	<path fill="#605543" d="M114.633 16.261C94.306 17.609 79.099 23.933 64.026 37.307C60.44 40.488 53.972 47.102 53.308 48.267C53.176 48.497 52.562 49.319 51.942 50.093C48.595 54.275 46.839 56.723 44.559 60.383C44.23 60.911 43.689 61.773 43.355 62.3C36.413 73.266 30.536 88.652 28.367 101.541C27.643 105.846 27.438 111.064 27.651 119.766C27.815 126.46 27.928 128.24 28.641 135.335C29.167 140.566 31.187 153.714 31.821 156.038C32.194 157.404 32.812 160.285 33.355 163.195C34.294 168.219 38.583 183.48 39.748 185.942C39.948 186.364 40.276 187.169 40.478 187.732C41.77 191.331 43.658 196.006 44.711 198.211C47.148 203.316 48.661 206.141 50.46 208.946C50.731 209.367 51.278 210.23 51.675 210.863C53.471 213.721 54.929 215.291 58.658 218.382C64.948 223.596 76.14 229.579 86.006 233.002C87.412 233.49 88.965 234.049 89.457 234.245C89.949 234.441 91.559 234.964 93.035 235.406C94.511 235.848 96.121 236.37 96.613 236.565C97.105 236.761 98.198 237.089 99.042 237.295C99.885 237.5 101.61 237.968 102.875 238.334C106.118 239.273 112.282 240.694 116.294 241.429C139.056 245.597 155.51 245.041 166.79 239.723C167.362 239.454 167.899 239.233 167.984 239.233C168.213 239.233 173.783 236.089 174.824 235.372C178.84 232.606 181.89 229.786 185.16 225.815C187.185 223.356 188.302 221.749 190.669 217.891C191.273 216.907 191.961 215.815 192.199 215.463C193.008 214.265 197.572 204.628 197.572 204.118C197.572 203.951 197.799 203.368 198.077 202.823C198.355 202.277 198.716 201.419 198.878 200.915C199.04 200.412 199.255 199.885 199.355 199.744C200.199 198.567 201.931 191.637 202.549 186.965C203.959 176.294 203.675 153.578 201.91 135.974C201.762 134.498 201.524 131.911 201.38 130.224C201.237 128.537 200.947 125.776 200.736 124.089C200.098 118.99 199.636 110.648 199.626 104.026C199.62 100.581 199.445 94.601 199.236 90.735C198.833 83.263 198.775 82.586 198.206 78.594C198.005 77.188 197.728 75.233 197.591 74.249C197.253 71.837 196.367 67.385 195.911 65.815C195.707 65.112 195.18 63.296 194.74 61.78C191.681 51.23 184.064 40.65 173.419 32.165C170.041 29.473 161.288 24.418 156.933 22.644C156.3 22.386 155.15 21.917 154.377 21.602C153.604 21.287 151.994 20.735 150.799 20.376C149.604 20.016 148.051 19.548 147.348 19.337C146.645 19.125 145.15 18.777 144.026 18.564C142.901 18.35 141.233 18.007 140.319 17.802C139.406 17.596 137.968 17.351 137.125 17.258C136.281 17.165 134.613 16.919 133.419 16.713C131.281 16.343 118.157 16.028 114.633 16.261M287.54 20.081C287.188 20.141 285.808 20.377 284.473 20.606C278.728 21.589 272.306 24.031 265.815 27.7C265.182 28.058 264.204 28.584 263.642 28.869C262.018 29.694 257.544 32.691 254.317 35.118C245.391 41.83 235.794 51.908 230.523 60.107C225.32 68.199 222.667 74.126 221.218 80.895C220.978 82.019 220.62 83.687 220.424 84.601C219.903 87.031 218.804 93.757 218.398 96.997C218.204 98.543 217.924 100.59 217.776 101.545C216.2 111.713 216.195 159.732 217.769 165.634C217.902 166.133 218.239 167.8 218.517 169.34C219.64 175.544 221.175 181.217 223.703 188.498C225.386 193.345 225.845 194.54 226.838 196.662C227.33 197.712 227.732 198.641 227.732 198.726C227.732 198.878 228.563 200.78 229.517 202.812C230.254 204.379 234.011 211.93 234.413 212.652C234.609 213.003 234.987 213.636 235.253 214.058C235.519 214.479 235.989 215.227 236.298 215.719C241.096 223.366 244.611 226.347 250.767 227.994C251.382 228.158 252 228.381 252.141 228.49C253.025 229.17 263.033 231.789 267.348 232.469C268.543 232.657 270.038 232.927 270.671 233.068C271.304 233.209 273.252 233.51 275 233.738C276.749 233.965 278.245 234.191 278.325 234.241C278.405 234.29 279.85 234.46 281.536 234.618C283.221 234.776 285.808 235.074 287.284 235.28C288.76 235.486 292.268 235.827 295.08 236.038C297.891 236.249 301.859 236.555 303.898 236.717C311.158 237.297 324.634 237.151 327.157 236.466C338.134 233.484 345.392 228.414 352.767 218.576C354.428 216.362 357.316 211.869 357.316 211.501C357.316 211.422 357.752 210.585 358.284 209.641C359.293 207.85 361.735 202.513 362.052 201.406C362.153 201.054 362.325 200.652 362.436 200.511C362.546 200.371 362.815 199.623 363.032 198.85C363.25 198.077 363.778 196.236 364.206 194.76C365.742 189.456 367.424 181.438 368.574 173.93C368.724 172.946 369.067 170.76 369.334 169.073C369.602 167.387 369.889 165.201 369.971 164.217C370.054 163.233 370.285 161.278 370.484 159.872C370.684 158.466 370.972 155.246 371.124 152.716C371.276 150.185 371.519 146.907 371.664 145.431C372.061 141.407 372.25 115.696 371.92 110.671C371.107 98.291 370.825 94.72 370.478 92.396C370.268 90.99 369.912 88.575 369.688 87.029C367.832 74.246 366.913 70.109 364.266 62.62C360.567 52.155 351.953 40.841 343.003 34.692C341.878 33.919 339.724 32.488 338.211 31.509C336.5 30.401 330.914 27.604 330.412 27.604C330.224 27.604 329.953 27.486 329.809 27.343C329.535 27.069 327.564 26.267 325.623 25.641C324.99 25.437 324.128 25.116 323.706 24.928C316.978 21.925 294.425 18.903 287.54 20.081M308.882 83.05C312.714 83.338 318.235 83.571 321.297 83.574C328.373 83.58 328.135 83.428 327.574 87.571C327.367 89.1 327.01 91.847 326.781 93.674C326.552 95.502 326.256 97.62 326.122 98.381C325.988 99.143 325.879 100.147 325.879 100.613C325.879 102.168 325.063 105.674 324.584 106.177C324.011 106.778 323.935 106.621 323.1 103.131C322.141 99.119 319.364 94.987 316.607 93.469C311.229 90.509 307.257 89.477 301.214 89.469C289.598 89.454 282.173 94.283 282.173 101.853C282.173 106.198 284.052 108.504 290.607 112.199C291.942 112.952 293.323 113.761 293.674 113.997C294.359 114.457 296.656 115.754 298.53 116.738C299.163 117.07 300.141 117.619 300.703 117.959C301.265 118.298 302.128 118.764 302.62 118.994C303.112 119.224 303.687 119.559 303.898 119.739C304.109 119.918 305.029 120.469 305.942 120.962C306.856 121.455 309.444 122.922 311.693 124.222C313.942 125.522 316.243 126.816 316.805 127.098C317.367 127.379 318.403 127.971 319.105 128.411C319.808 128.852 320.671 129.358 321.022 129.535C325.116 131.6 330.78 136.581 334.568 141.448C336.426 143.835 338.687 149.249 339.755 153.866C340.177 155.693 340.076 163.647 339.604 165.751C334.673 187.729 310.338 201.345 283.856 196.943C281.618 196.571 279.598 196.165 279.365 196.041C279.133 195.916 278.26 195.644 277.427 195.437C272.028 194.091 264.463 189.703 260.788 185.783C254.732 179.326 252.438 174.26 251.245 164.712C250.743 160.693 252.019 153.274 253.924 149.137C254.248 148.435 254.772 147.284 255.089 146.581C255.992 144.58 258.182 141.086 258.534 141.086C259.275 141.086 259.516 141.822 259.1 142.818C258.881 143.341 258.339 144.633 257.896 145.687C249.263 166.218 263.432 187.687 286.901 189.634C309.261 191.489 321.968 174.618 309.962 159.018C307.982 156.445 304.316 153.55 299.425 150.697C298.019 149.877 296.581 149.01 296.23 148.77C295.639 148.367 291.875 146.167 289.205 144.665C285.06 142.332 283.677 141.531 280.256 139.475C270.297 133.494 265.962 129.448 262.951 123.323C262.398 122.198 261.851 121.105 261.734 120.895C260.278 118.258 259.823 109.087 260.917 104.409C262.699 96.786 266.065 91.836 272.459 87.435C275.149 85.583 281 83.553 285.367 82.956C286.914 82.744 288.466 82.518 288.818 82.453C290.2 82.196 302.346 82.558 308.882 83.05M132.97 85.49C134.902 85.695 137.317 86.099 138.337 86.388C150.158 89.737 156.987 93.543 164.222 100.814C169.61 106.229 175.832 117.621 175.849 122.104C175.851 122.493 176.021 123.367 176.227 124.046C177.199 127.251 177.21 138.2 176.244 142.109C176.053 142.882 175.82 143.974 175.726 144.537C174.106 154.205 165.72 165.643 155.64 171.935C153.098 173.521 146.307 176.869 145.63 176.869C145.493 176.869 145.018 177.037 144.575 177.243C130.974 183.566 100.429 182.686 85.83 175.552C84.723 175.011 83.7 174.569 83.557 174.569C83.413 174.569 82.872 174.281 82.355 173.93C81.838 173.578 81.333 173.291 81.233 173.291C80.922 173.291 77.687 171.212 75.016 169.296C71.781 166.976 67.722 162.872 64.92 159.09C64.073 157.947 63.833 157.541 62.74 155.399C62.489 154.907 62.095 154.217 61.864 153.866C61.076 152.666 59.327 147.864 58.559 144.792C56.013 134.618 56.823 124.612 61.042 114.121C63.785 107.298 69.209 100.563 76.068 95.463C79.699 92.763 85.697 89.856 90.735 88.355C95.974 86.794 96.352 86.719 97.231 87.056C97.888 87.308 97.694 88.48 96.803 89.64C95.412 91.45 94.99 92.069 93.972 93.799C92.885 95.646 91.247 99.084 91.244 99.525C91.244 99.681 91.087 100.107 90.896 100.472C86.959 108.018 85.089 130.995 87.424 143.131C89.427 153.541 91.751 158.88 97.252 165.713C99.884 168.98 106.394 173.546 108.423 173.546C108.615 173.546 109.4 173.764 110.169 174.029C121.916 178.089 136.774 171.008 142.597 158.573C143.052 157.601 143.572 156.518 143.751 156.166C144.079 155.525 145.221 151.968 146.172 148.626C146.452 147.642 146.799 145.917 146.943 144.792C147.087 143.668 147.331 142.345 147.485 141.853C147.639 141.361 147.826 138.256 147.901 134.952C148.35 115.154 141.306 98.496 130.57 93.969C130.098 93.77 129.279 93.422 128.748 93.195C124.962 91.575 116.781 92.256 113.318 94.479C105.718 99.357 102.619 108.272 104.81 118.954C105.551 122.568 105.315 123.291 103.857 121.878C103.388 121.422 103.002 120.929 103.002 120.781C103.001 120.632 102.818 120.166 102.596 119.744C100.038 114.89 99.274 104.448 101.205 100.743C101.326 100.51 101.744 99.629 102.134 98.786C106.879 88.514 117.661 83.865 132.97 85.49Z"/>
</svg>