<svg xmlns="http://www.w3.org/2000/svg" viewBox="0 0 450 275" shape-rendering="geometricPrecision" image-rendering="optimizeQuality">
	<path fill="#00a8e1" d="M221.5 200C217.5 199.9 213.5 199.9 209.5 200C204 199.7 198.5 199.5 193 199.1C178.4 198 163.9 195.8 149.7 192.5C100.6 181.1 57.5 158.2 19.9 124.9C16.4 121.8 13.1 118.6 9.7 115.4C8.9 114.7 8.2 113.7 7.8 112.7C7.2 111.3 7.5 109.8 8.5 108.7C9.5 107.6 11.1 107.2 12.5 107.8C13.4 108.2 14.3 108.6 15.1 109.1C51 131.3 90.2 147.5 131.3 157.1C145.1 160.3 159 162.8 173 164.6C193.1 167.1 213.4 168 233.6 167.3C244.5 167 255.3 166 266.1 164.6C291.3 161.4 316.2 155.7 340.3 147.7C353 143.5 365.4 138.7 377.5 133.1C379.3 132.1 381.5 131.8 383.5 132.3C386.8 133.1 388.8 136.5 388 139.8C387.9 140.2 387.7 140.7 387.5 141.1C386.7 142.6 385.6 143.9 384.2 144.9C372.7 153.9 360.3 161.8 347.2 168.4C322.5 180.9 296.1 189.8 268.9 194.9C253.2 197.7 237.4 199.4 221.5 200ZM393.4 102.5C400 102.7 406.5 103.1 412.9 104.8C414.7 105.3 416.4 105.9 418.1 106.7C420.4 107.6 421.9 109.8 422.2 112.2C422.6 115 422.7 117.9 422.5 120.8C421.2 137.9 415.9 154.4 407.1 169.1C403.9 174.4 400 179.2 395.5 183.4C394.6 184.3 393.5 185 392.3 185.4C390.4 185.9 389.2 184.9 389.1 183C389.2 182 389.4 181 389.8 180C393.3 170.6 396.7 161.3 399.4 151.6C401 146.3 402.1 140.9 402.8 135.4C403 133.4 403.1 131.4 402.9 129.4C402.8 126 400.6 123.1 397.3 122.1C394.2 121.1 391 120.5 387.7 120.3C378.5 119.9 369.3 120.3 360.2 121.5L348.1 123C346.8 123.1 345.6 123 344.9 121.8S344.5 119.4 345.2 118.2C346 117.1 347 116.1 348.2 115.4C355.6 110.1 363.9 106.9 372.7 104.8C379.5 103.4 386.4 102.7 393.4 102.5ZM188 42C187.6 36.8 186.2 31.7 184.1 27C180 18.4 173.7 12.1 164.1 9.9C153.1 7.5 143.2 9.9 134.2 16.6C133.6 17.2 132.9 17.7 132.1 18.1C131.9 18 131.7 17.9 131.7 17.8C131.4 16.8 131.2 15.8 130.9 14.8C130.1 12.3 129.1 11.4 126.4 11.4C123.4 11.4 120.3 11.5 117.3 11.4C115 11.3 112.9 11.6 111.3 13.4C111.3 48.4 111.3 83.5 111.4 118.4C112.7 120.5 114.7 120.9 117 120.8C120.6 120.7 124.2 120.8 127.8 120.8C134.1 120.8 134.1 120.8 134.1 114.6V86.1C134.1 85.4 133.8 84.6 134.5 84C139.5 87.9 145.6 90.3 151.9 90.9C160.7 91.8 168.7 89.6 175.4 83.6C180.3 79.1 183.9 73.3 185.8 66.9C188.5 58.7 188.7 50.4 188 42ZM164.1 62.7C163.4 65.8 161.8 68.6 159.5 70.7C156.9 72.9 153.7 74.2 150.3 74.2C145.2 74.5 140.2 73.4 135.7 71C134.6 70.5 133.9 69.4 134 68.2V50.1C134 44.1 134.1 38.1 134 32.1C133.9 30.7 134.7 29.5 136 29C141.5 26.4 147.2 25.2 153.2 26.4C157.4 27 161 29.7 162.7 33.6C164.2 36.8 165.1 40.3 165.3 43.8C165.9 50.2 165.9 56.6 164.1 62.7Z"/>
	<path fill="#333333" d="M280.7 76C281.3 74 281.9 72.1 282.5 70.1C287.1 54.6 291.7 39.2 296.3 23.7L296.9 21.9C297.4 20.1 299.1 19 300.9 19H316.1C319.9 19 320.7 20.1 319.4 23.7L313.4 39.6C306.7 57 300 74.5 293.3 91.9C293.1 92.5 292.8 93.1 292.6 93.7C291.9 95.8 289.8 97.2 287.6 97C283.2 96.9 278.8 96.9 274.4 97C271.3 97.1 269.5 95.7 268.4 92.9C265.9 86.3 263.3 79.6 260.8 73C254.8 57.3 248.7 41.6 242.7 25.8C242.1 24.6 241.7 23.2 241.4 21.9C241.1 19.9 241.8 18.9 243.8 18.9C249.5 18.8 255.2 18.9 260.8 18.9C263.2 18.9 264.3 20.5 264.9 22.6C266 26.4 267.1 30.3 268.3 34.1C272.4 48 276.4 62 280.5 75.9C280.4 76 280.5 76 280.7 76Z"/>
</svg>