<svg xmlns="http://www.w3.org/2000/svg" viewBox="0 0 100 100" shape-rendering="geometricPrecision" image-rendering="optimizeQuality">
	<path fill="#171717" d="M52.69 18.79A1.62 1.62 0 0154.62 17.57L67.86 20.5A5.24 5.24 0 1167.31 23.43L55.31 20.77 51.24 38.27A37.77 37.77 0 0173 45.47A7.71 7.71 0 0184.83 46.4A8 8 0 0181.64 57.83A18.67 18.67 0 0173.64 75.33A39.57 35 0 0126.36 75.33A18.67 18.67 0 0118.36 57.83A8 8 0 0115.17 46.42A7.74 7.74 0 0127 45.47A37.78 37.78 0 0148.19 38.28Z"/>
	<path fill="#c43500" d="M57.08 56.19A5.3 5.3 0 1062.38 50.89A5.29 5.29 0 0057.08 56.19ZM63.39 70.8A1.22 1.22 0 0062.09 68.8A20.66 20.66 0 0137.91 68.8A1.22 1.22 0 0036.61 70.8A22.66 22.66 0 0063.39 70.8ZM32.32 56.19A5.3 5.3 0 1037.62 50.89A5.29 5.29 0 0032.32 56.19Z"/>
</svg>