<svg xmlns="http://www.w3.org/2000/svg" viewBox="0 0 2000 2000" shape-rendering="geometricPrecision" image-rendering="optimizeQuality">
	<path fill="#000000" d="M464 402.67C562 491.33 753 678 860 814C724 826 660 823 487 850C574 882 773 1027 840 1151C734 1202 578 1243 393 1455C758 1264 1062 1246 1262 1401C1252 1355 1243.75 1309.65 1264 1315C1266.61 1311.23 1366 1351 1393 1383C1421 1455 1424.61 1513.95 1424 1512C1424 1512 1613 1615 1613 1615C1561 1237 1220 662 466 402Z"/>
	<path fill="#004e84" d="M1417 1319C1413.67 1335.33 1403 1329.67 1394.33 1328.33C1264.67 1189.67 1000.5 1086 939.5 709C937 692 950 694.31 959.25 704C1321.5 1029.5 1421 1306.33 1417 1319Z"/>
	<path fill="#33b6e9" d="M1175 1094.5C1094.5 986 1056.58 846.7 1073.5 823.5C1087.12 813.99 1134 881.67 1233.27 977.45C1326.33 1089.33 1383.86 1178.02 1414 1311C1425.1 1342.16 1389.17 1326.85 1388 1325C1232.5 1137.5 1227.5 1151.5 1175 1094.5Z"/>
	<path fill="#daf1ff" d="M1418 1316C1420.75 1329 1406.75 1337 1392.25 1329C1264.67 1254 1203.33 1065.67 1224.5 1033C1248.75 1018.5 1386 1203.17 1418 1316Z"/>
</svg>
