<svg xmlns="http://www.w3.org/2000/svg" viewBox="0 0 110 80" shape-rendering="geometricPrecision" image-rendering="optimizeQuality">
	<path fill="#333" d="M88.4916 31.5541A12.2793 12.2793 90 0076.1859 43.7789L68.5101 54.7861A9.3159 9.3159 90 0062.8654 56.045L28.0999 42.0728A9.3555 9.1905 0 1023.8347 51.9827L58.6002 65.955A9.1905 9.1905 90 0076.7139 64.9006L88.5345 56.2497A12.2974 12.2974 90 0088.4916 31.5541ZM25.0524 40.8139 21.6815 39.4741A1.6335 1.6335 90 1017.7 49.4236L20.5429 50.5605A6.6 6.6 90 1125.0524 40.8139ZM66.1159 57.3452A6.7667 6.7667 90 1161.5636 67.0918L64.8966 68.4316A1.6335 1.6335 90 1068.9177 58.4804L66.1159 57.3452ZM88.5527 37.2598A1.65 1.65 90 0188.5527 50.4598A1.65 1.65 90 0188.5527 37.2598ZM88.4916 35.6148A1.65 1.65 90 0188.4916 52.1048A1.65 1.65 90 0188.4916 35.6148Z"/>
</svg>