<svg viewBox="0 0 24 24">
	<path fill="#0bafd0" d="M11.8074 5.91458V12.2608L8.73707 14.5553H9.72592V19.503C4.84097 19.5958 0.196722 21.4267 0.196722 21.4267C2.75562 19.5727 6.94198 18.7383 6.94198 18.7383L6.05814 10.4184L5.64002 10.511V10.0088L11.8074 5.91458ZM11.8074 2.65574V5.39394L5.95312 9.43413L5.67589 7.43697L6.87805 6.53825L7.21725 8.11299L8.08087 7.49074V5.73201L9.56807 4.42632L9.86095 6.29248L10.8479 5.51681V3.47364L11.8074 2.65574Z"></path>
	<path fill="#b9cad0" d="M12.1987 5.91458L18.3666 10.0088V10.511L17.9479 10.4184L17.0634 18.7383C17.0634 18.7383 21.2504 19.5727 23.8093 21.4267C23.8093 21.4267 19.1651 19.5958 14.2801 19.503V14.5553H15.269L12.1987 12.2608V5.91458ZM12.1987 2.65574L13.1581 3.47364V5.51681L14.1444 6.29248L14.4373 4.42632L15.9252 5.73201V7.49074L16.7888 8.11299L17.128 6.53825L18.3301 7.43697L18.0522 9.43413L12.1987 5.39394V2.65574Z"/>
</svg>