<svg xmlns="http://www.w3.org/2000/svg" viewBox="0 0 27 27" shape-rendering="geometricPrecision" image-rendering="optimizeQuality">
	<path fill="#50abf1" d="M24.415 6.0127C23.6181 6.3665 22.7616 6.6047 21.8627 6.7121C22.7806 6.1625 23.4854 5.2916 23.8166 4.2537C22.9584 4.7627 22.0071 5.1328 20.9945 5.3322C20.185 4.4685 19.0289 3.9288 17.7509 3.9288C14.8819 3.9288 12.7737 6.6056 13.4216 9.3844C9.7295 9.1994 6.4552 7.4305 4.2631 4.742C3.0989 6.7392 3.6593 9.3519 5.6376 10.675C4.9102 10.6515 4.2243 10.4521 3.6259 10.1191C3.5772 12.1777 5.0528 14.1036 7.1899 14.5323C6.5645 14.702 5.8795 14.7417 5.1827 14.6081C5.7477 16.3734 7.3884 17.6577 9.3342 17.6937C7.466 19.1585 5.1123 19.8128 2.755 19.5348C4.7215 20.7956 7.0581 21.5312 9.5671 21.5312C17.8177 21.5312 22.4791 14.563 22.1976 8.3132C23.0658 7.6859 23.8194 6.9035 24.415 6.0127Z"/>
</svg>