<svg xmlns="http://www.w3.org/2000/svg" viewBox="0 0 4000 4000" shape-rendering="geometricPrecision" image-rendering="optimizeQuality">
<!--190x190-->
	<path fill="#000000" d="M0 0H4000V4000H0Z"/>
	<path fill="#5181b8" d="M3557 1234C3580 1157 3557 1100 3447 1100H3082C2989 1100 2947 1149 2923 1203C2923 1203 2738 1655 2475 1949C2390 2034 2351 2061 2305 2061C2282 2061 2247 2034 2247 1957V1235C2247 1142 2221 1101 2144 1101H1571C1513 1101 1478 1144 1478 1185C1478 1273 1609 1293 1623 1540V2077C1623 2195 1602 2216 1555 2216C1431 2216 1131 1762 952 1242C917 1141 882 1100 789 1100H424C320 1100 299 1149 299 1203C299 1300 423 1779 875 2412C1176 2845 1601 3079 1987 3079C2219 3079 2247 3027 2247 2937V2610C2247 2506 2269 2485 2342 2485C2396 2485 2489 2512 2705 2721C2952 2968 2993 3079 3132 3079H3497C3601 3079 3653 3027 3623 2924C3590 2822 3472 2673 3315 2497C3230 2397 3103 2288 3064 2234C3010 2164 3025 2134 3064 2072C3343 1662 3385 1587 3557 1234ZZ"/>
</svg>