<svg height="1192" width="1220" viewbox="0 0 1192 1220" xmlns="http://www.w3.org/2000/svg">
	<path fill="#001D1D" d="M0 450 151 155 457 0 763 0 1069 154 1220 450 1220 746 1066 1041 764 1191 452 1192 154 1040 0 745Z"/>
	<path fill="#7B7272" d="M67 468 199 203 477 67 744 67 1021 202 1153 469 1153 727 1019 993 745 1125 475 1125 201 991 67 726Z"/>
	<path fill="#001D1D" d="M391 230 849 230 848 802 800 802 801 269 439 269 439 688 391 688Z"/>
	<path fill="#b19015" d="M439 269 496 269 496 688 439 688Z"/>
	<path fill="#b19015" d="M743 269 801 269 800 802 743 802Z"/>
	<path fill="#bab815" d="M496 269 544 269 544 688 496 688Z"/>
	<path fill="#bab815" d="M696 269 743 269 743 802 696 794Z"/>
	<path fill="#beb4b4" d="M544 269 696 269 696 794 658 736 544 693Z"/>
	<path fill="#58493C" d="M439 355 801 355 801 384 439 384Z"/>
	<path fill="#58493C" d="M439 469 801 469 801 498 439 498Z"/>
	<path fill="#58493C" d="M439 574 801 574 801 603 439 603Z"/>
	<path fill="#58493C" d="M439 687 801 687 801 716 439 716Z"/>
	<path fill="#58493C" d="M229 775 391 688 531 688 658 736 696 794 743 802 875 802 915 821 923 869 790 974 706 1011 515 1011 326 974 202 916Z"/>
	<path fill="#9a8367" d="M278 803 392 745 592 745 631 784 468 821 525 840 653 850 867 850 857 879 772 936 706 954 514 954 373 936 249 898Z"/>
	<path fill="#997646" d="M249 898 391 840 438 878 515 898 562 898 514 954 373 936Z"/>
	<path fill="#bb9f6a" d="M278 803 392 745 535 745 552 801.9325 468 821 391 840Z"/>
	<path fill="#BB9F6A" d="M525 840 653 850 819 850 827.1755 899 697 907 562 898Z"/>
	<path fill="#BB9F6A" d="M535 745 592 745 631 784 552 801.9325Z"/>
	<path fill="#b2a78d" d="M535 745 592 745 631 784 552 801.9325Z"/>
	<path fill="#b2a78d" d="M819 850 867 850 857 879 827.1755 899Z"/>
</svg>









